<?xml version="1.0" encoding="utf-8"?>
<svg viewBox="0 0 250 75" xmlns="http://www.w3.org/2000/svg">
  <g id="svgGroup" stroke-linecap="round" fill-rule="evenodd" font-size="9pt" stroke="#000" stroke-width="0.25mm" fill="#000" style="stroke:#000;stroke-width:0.25mm;fill:#000" transform="matrix(0.917185068130493, 0, 0, 0.917185068130493, 80.08857083452595, 7.795258161354951)">
    <path d="M 59.723 64.583 L 52.223 64.583 L 52.223 22.917 L 59.168 22.917 L 59.168 29.653 Q 61.459 25.972 65.105 24.028 A 16.492 16.492 0 0 1 72.987 22.083 Q 77.431 22.083 81.216 24.271 A 16.308 16.308 0 0 1 86.71 29.527 A 19.78 19.78 0 0 1 87.362 30.59 A 17.309 17.309 0 0 1 89.271 35.799 Q 89.709 37.972 89.723 40.464 A 29.342 29.342 0 0 1 89.723 40.625 L 89.723 64.583 L 82.223 64.583 L 82.223 41.667 A 13.779 13.779 0 0 0 79.272 32.951 A 9.61 9.61 0 0 0 72.312 29.23 A 13.889 13.889 0 0 0 70.973 29.167 A 11.14 11.14 0 0 0 63.498 32.025 A 14.4 14.4 0 0 0 63.161 32.326 Q 59.723 35.486 59.723 41.458 L 59.723 64.583 Z M 104.793 64.583 L 96.806 64.583 L 123.265 0 L 123.404 0 L 149.862 64.583 L 141.459 64.583 L 134.098 46.042 L 112.223 46.042 L 104.793 64.583 Z M 42.223 42.778 L 42.223 45.833 L 15.001 45.833 Q 13.195 45.833 11.32 45.694 A 47.061 47.061 0 0 1 7.64 45.278 A 14.686 14.686 0 0 0 12.674 54.583 A 14.906 14.906 0 0 0 22.848 58.333 A 15.465 15.465 0 0 0 30.209 56.528 A 15.539 15.539 0 0 0 34.868 52.814 A 14.892 14.892 0 0 0 35.695 51.736 L 37.779 60.278 A 22.491 22.491 0 0 1 31.298 63.933 A 25.409 25.409 0 0 1 30.938 64.062 A 24.427 24.427 0 0 1 22.812 65.417 A 27.715 27.715 0 0 1 22.779 65.417 A 25.038 25.038 0 0 1 15.594 64.415 A 21.908 21.908 0 0 1 11.077 62.5 A 21.445 21.445 0 0 1 2.952 54.549 Q 0.001 49.514 0.001 43.333 A 21.055 21.055 0 0 1 1.739 34.767 A 20.433 20.433 0 0 1 2.848 32.604 Q 5.695 27.778 10.522 24.931 Q 15.348 22.083 21.181 22.083 A 20.872 20.872 0 0 1 31.737 24.826 A 21.087 21.087 0 0 1 39.376 32.222 Q 42.223 36.875 42.223 42.778 Z M 168.612 64.583 L 160.695 64.583 L 160.695 2.083 L 168.612 2.083 L 168.612 64.583 Z M 15.001 39.583 L 28.82 39.583 A 43.394 43.394 0 0 1 31.841 39.687 A 144.292 144.292 0 0 1 34.862 39.931 Q 33.89 35.069 30.001 31.91 Q 26.112 28.75 21.181 28.75 A 13.025 13.025 0 0 0 12.293 32.118 A 15.371 15.371 0 0 0 8.539 36.989 A 14.677 14.677 0 0 0 7.431 40.208 Q 11.181 39.583 15.001 39.583 Z M 119.793 27.083 L 114.862 39.444 L 131.459 39.444 L 126.529 27.083 A 302.323 302.323 0 0 1 124.793 22.431 A 46.589 46.589 0 0 1 124.168 20.585 Q 123.647 18.941 123.126 16.944 Q 122.293 20.139 121.529 22.396 A 89.26 89.26 0 0 1 120.266 25.879 A 102.696 102.696 0 0 1 119.793 27.083 Z" vector-effect="non-scaling-stroke"/>
  </g>
  <path fill="#104c6b" d="M 72.196 38.544 C 67.116 38.619 62.083 38.625 57.098 38.559 C 55.336 38.537 55.418 40.014 54.046 40.532 C 51.331 41.537 48.616 38.934 50.003 36.249 C 51.271 33.774 54.061 34.149 55.628 36.137 C 55.88 36.45 56.26 36.635 56.663 36.639 L 73.696 36.677 C 74.341 36.681 74.854 37.218 74.828 37.862 C 74.383 48.327 70.363 56.595 62.768 62.664 C 58.988 65.685 54.631 67.787 49.696 68.972 C 44.976 70.102 40.063 70.077 34.958 68.897 C 21.638 65.822 11.318 53.717 10.606 39.977 C 10.056 29.397 13.488 20.722 20.903 13.952 C 27.648 7.792 35.783 5.037 45.308 5.687 C 47.928 5.867 50.326 6.354 52.501 7.149 C 52.693 7.221 52.906 7.216 53.093 7.134 C 53.716 6.872 54.136 6.294 54.766 6.069 C 57.691 5.027 60.676 8.852 57.863 11.267 C 55.958 12.902 53.393 11.897 52.771 9.549 C 52.696 9.279 52.523 9.102 52.253 9.017 C 39.023 4.832 25.928 9.324 17.911 20.387 C 14.956 24.467 13.218 28.972 12.698 33.902 C 12.391 36.842 12.421 41.484 13.298 44.754 C 16.363 56.209 23.563 63.579 34.898 66.864 C 41.138 68.674 47.398 68.28 53.678 65.679 C 63.438 61.639 69.621 54.285 72.226 43.614 C 72.586 42.139 72.743 40.612 72.698 39.032 C 72.693 38.707 72.526 38.544 72.196 38.544 Z M 57.451 9.054 C 57.451 8.176 56.739 7.464 55.861 7.464 C 54.982 7.464 54.271 8.176 54.271 9.054 C 54.271 9.933 54.982 10.644 55.861 10.644 C 56.739 10.644 57.451 9.933 57.451 9.054 Z M 54.481 37.682 C 54.481 36.804 53.769 36.092 52.891 36.092 C 52.012 36.092 51.301 36.804 51.301 37.682 C 51.301 38.56 52.012 39.272 52.891 39.272 C 53.769 39.272 54.481 38.56 54.481 37.682 Z" transform="matrix(1, 0, 0, 1, -1.4210854715202004e-14, 0)"/>
  <circle fill="#ffffff" cx="55.861" cy="9.055" r="1.59" transform="matrix(1, 0, 0, 1, -1.4210854715202004e-14, 0)"/>
  <path fill="#1484b7" d="M 66.241 43.997 L 44.948 44.057 C 44.688 44.057 44.481 44.162 44.326 44.372 C 43.268 45.812 42.278 47.102 40.381 46.494 C 35.461 44.934 39.241 38.109 42.953 41.019 C 43.583 41.514 44.018 42.084 44.888 42.084 C 52.723 42.12 60.466 42.174 68.116 42.249 C 68.664 42.255 69.066 42.763 68.941 43.292 C 62.918 68.717 29.641 72.272 18.188 49.104 C 10.981 34.532 19.201 16.802 34.253 12.129 C 42.068 9.699 49.578 10.569 56.783 14.739 C 57.093 14.914 57.403 14.917 57.713 14.747 C 60.001 13.464 63.338 15.977 62.131 18.497 C 60.511 21.887 55.898 20.597 56.101 16.974 C 56.114 16.743 55.999 16.524 55.801 16.404 C 49.911 12.84 43.735 11.797 37.276 13.277 C 31.101 14.692 26.143 17.91 22.403 22.929 C 15.256 32.537 16.133 46.307 24.406 54.917 C 32.026 62.859 43.613 65.109 53.551 60.114 C 59.866 56.944 64.251 51.789 66.706 44.649 C 66.856 44.214 66.7 43.997 66.241 43.997 Z M 60.826 17.319 C 60.826 16.425 60.1 15.699 59.206 15.699 C 58.311 15.699 57.586 16.425 57.586 17.319 C 57.586 18.214 58.311 18.939 59.206 18.939 C 60.1 18.939 60.826 18.214 60.826 17.319 Z M 42.811 43.464 C 42.811 42.582 42.095 41.867 41.213 41.867 C 40.331 41.867 39.616 42.582 39.616 43.464 C 39.616 44.346 40.331 45.062 41.213 45.062 C 42.095 45.062 42.811 44.346 42.811 43.464 Z" transform="matrix(1, 0, 0, 1, -1.4210854715202004e-14, 0)"/>
  <path fill="#104c6b" d="M 57.338 50.192 L 50.558 50.289 C 50.329 50.293 50.117 50.412 49.996 50.604 C 47.701 54.242 42.586 51.152 44.363 47.747 C 45.833 44.919 48.758 45.587 50.266 47.957 C 50.457 48.26 50.794 48.444 51.158 48.444 L 59.866 48.437 C 60.061 48.437 60.25 48.5 60.406 48.617 L 60.601 48.759 C 60.97 49.039 61.018 49.367 60.743 49.742 C 54.188 58.734 42.976 62.064 32.896 57.212 C 26.296 54.032 21.548 47.147 20.866 39.917 C 20.236 33.272 22.318 27.447 27.113 22.442 C 30.616 18.774 36.248 15.984 41.611 16.059 C 42.321 16.069 43.026 16.024 43.726 15.924 C 44.001 15.885 44.233 15.762 44.423 15.557 C 46.083 13.797 47.763 13.785 49.463 15.519 C 50.113 16.174 50.29 17.012 49.996 18.032 C 49.051 21.332 45.083 21.429 43.951 18.324 C 43.84 18.019 43.623 17.867 43.298 17.867 C 30.811 17.934 22.028 27.339 23.056 39.894 C 23.873 49.982 32.836 57.707 42.833 57.617 C 48.473 57.564 53.746 54.752 57.571 50.717 C 57.737 50.547 57.652 50.262 57.418 50.202 C 57.391 50.195 57.365 50.192 57.338 50.192 Z M 48.526 17.432 C 48.526 16.558 47.817 15.849 46.943 15.849 C 46.069 15.849 45.361 16.558 45.361 17.432 C 45.361 18.306 46.069 19.014 46.943 19.014 C 47.817 19.014 48.526 18.306 48.526 17.432 Z M 48.796 49.089 C 48.796 48.228 48.097 47.529 47.236 47.529 C 46.374 47.529 45.676 48.228 45.676 49.089 C 45.676 49.951 46.374 50.649 47.236 50.649 C 48.097 50.649 48.796 49.951 48.796 49.089 Z" transform="matrix(1, 0, 0, 1, -1.4210854715202004e-14, 0)"/>
  <circle fill="#ffffff" cx="59.206" cy="17.319" r="1.62" transform="matrix(1, 0, 0, 1, -1.4210854715202004e-14, 0)"/>
  <circle fill="#ffffff" cx="46.943" cy="17.432" r="1.582" transform="matrix(1, 0, 0, 1, -1.4210854715202004e-14, 0)"/>
  <circle fill="#ffffff" cx="52.891" cy="37.682" r="1.59" transform="matrix(1, 0, 0, 1, -1.4210854715202004e-14, 0)"/>
  <circle fill="#ffffff" cx="41.213" cy="43.465" r="1.598" transform="matrix(1, 0, 0, 1, -1.4210854715202004e-14, 0)"/>
  <circle fill="#ffffff" cx="47.235" cy="49.09" r="1.56" transform="matrix(1, 0, 0, 1, -1.4210854715202004e-14, 0)"/>
</svg>