<?xml version="1.0" encoding="utf-8"?>
<svg viewBox="0 0 250 75" xmlns="http://www.w3.org/2000/svg">
  <g id="svgGroup" stroke-linecap="round" fill-rule="evenodd" font-size="9pt" stroke="#000" stroke-width="0.25mm" fill="#000" style="stroke:#000;stroke-width:0.25mm;fill:#000" transform="matrix(1, 0, 0, 1, 74.0885554863297, 4.443140096115172)">
    <path d="M 59.723 64.583 L 52.223 64.583 L 52.223 22.917 L 59.168 22.917 L 59.168 29.653 Q 61.459 25.972 65.105 24.028 A 16.492 16.492 0 0 1 72.987 22.083 Q 77.431 22.083 81.216 24.271 A 16.308 16.308 0 0 1 86.71 29.527 A 19.78 19.78 0 0 1 87.362 30.59 A 17.309 17.309 0 0 1 89.271 35.799 Q 89.709 37.972 89.723 40.464 A 29.342 29.342 0 0 1 89.723 40.625 L 89.723 64.583 L 82.223 64.583 L 82.223 41.667 A 13.779 13.779 0 0 0 79.272 32.951 A 9.61 9.61 0 0 0 72.312 29.23 A 13.889 13.889 0 0 0 70.973 29.167 A 11.14 11.14 0 0 0 63.498 32.025 A 14.4 14.4 0 0 0 63.161 32.326 Q 59.723 35.486 59.723 41.458 L 59.723 64.583 Z M 104.793 64.583 L 96.806 64.583 L 123.265 0 L 123.404 0 L 149.862 64.583 L 141.459 64.583 L 134.098 46.042 L 112.223 46.042 L 104.793 64.583 Z M 42.223 42.778 L 42.223 45.833 L 15.001 45.833 Q 13.195 45.833 11.32 45.694 A 47.061 47.061 0 0 1 7.64 45.278 A 14.686 14.686 0 0 0 12.674 54.583 A 14.906 14.906 0 0 0 22.848 58.333 A 15.465 15.465 0 0 0 30.209 56.528 A 15.539 15.539 0 0 0 34.868 52.814 A 14.892 14.892 0 0 0 35.695 51.736 L 37.779 60.278 A 22.491 22.491 0 0 1 31.298 63.933 A 25.409 25.409 0 0 1 30.938 64.062 A 24.427 24.427 0 0 1 22.812 65.417 A 27.715 27.715 0 0 1 22.779 65.417 A 25.038 25.038 0 0 1 15.594 64.415 A 21.908 21.908 0 0 1 11.077 62.5 A 21.445 21.445 0 0 1 2.952 54.549 Q 0.001 49.514 0.001 43.333 A 21.055 21.055 0 0 1 1.739 34.767 A 20.433 20.433 0 0 1 2.848 32.604 Q 5.695 27.778 10.522 24.931 Q 15.348 22.083 21.181 22.083 A 20.872 20.872 0 0 1 31.737 24.826 A 21.087 21.087 0 0 1 39.376 32.222 Q 42.223 36.875 42.223 42.778 Z M 168.612 64.583 L 160.695 64.583 L 160.695 2.083 L 168.612 2.083 L 168.612 64.583 Z M 15.001 39.583 L 28.82 39.583 A 43.394 43.394 0 0 1 31.841 39.687 A 144.292 144.292 0 0 1 34.862 39.931 Q 33.89 35.069 30.001 31.91 Q 26.112 28.75 21.181 28.75 A 13.025 13.025 0 0 0 12.293 32.118 A 15.371 15.371 0 0 0 8.539 36.989 A 14.677 14.677 0 0 0 7.431 40.208 Q 11.181 39.583 15.001 39.583 Z M 119.793 27.083 L 114.862 39.444 L 131.459 39.444 L 126.529 27.083 A 302.323 302.323 0 0 1 124.793 22.431 A 46.589 46.589 0 0 1 124.168 20.585 Q 123.647 18.941 123.126 16.944 Q 122.293 20.139 121.529 22.396 A 89.26 89.26 0 0 1 120.266 25.879 A 102.696 102.696 0 0 1 119.793 27.083 Z" vector-effect="non-scaling-stroke"/>
  </g>
  <path fill="#104c6b" d="M 66.196 38.544 C 61.116 38.619 56.083 38.625 51.098 38.559 C 49.336 38.537 49.418 40.014 48.046 40.532 C 45.331 41.537 42.616 38.934 44.003 36.249 C 45.271 33.774 48.061 34.149 49.628 36.137 C 49.88 36.45 50.26 36.635 50.663 36.639 L 67.696 36.677 C 68.341 36.681 68.854 37.218 68.828 37.862 C 68.383 48.327 64.363 56.595 56.768 62.664 C 52.988 65.685 48.631 67.787 43.696 68.972 C 38.976 70.102 34.063 70.077 28.958 68.897 C 15.638 65.822 5.318 53.717 4.606 39.977 C 4.056 29.397 7.488 20.722 14.903 13.952 C 21.648 7.792 29.783 5.037 39.308 5.687 C 41.928 5.867 44.326 6.354 46.501 7.149 C 46.693 7.221 46.906 7.216 47.093 7.134 C 47.716 6.872 48.136 6.294 48.766 6.069 C 51.691 5.027 54.676 8.852 51.863 11.267 C 49.958 12.902 47.393 11.897 46.771 9.549 C 46.696 9.279 46.523 9.102 46.253 9.017 C 33.023 4.832 19.928 9.324 11.911 20.387 C 8.956 24.467 7.218 28.972 6.698 33.902 C 6.391 36.842 6.421 41.484 7.298 44.754 C 10.363 56.209 17.563 63.579 28.898 66.864 C 35.138 68.674 41.398 68.28 47.678 65.679 C 57.438 61.639 63.621 54.285 66.226 43.614 C 66.586 42.139 66.743 40.612 66.698 39.032 C 66.693 38.707 66.526 38.544 66.196 38.544 Z M 51.451 9.054 C 51.451 8.176 50.739 7.464 49.861 7.464 C 48.982 7.464 48.271 8.176 48.271 9.054 C 48.271 9.933 48.982 10.644 49.861 10.644 C 50.739 10.644 51.451 9.933 51.451 9.054 Z M 48.481 37.682 C 48.481 36.804 47.769 36.092 46.891 36.092 C 46.012 36.092 45.301 36.804 45.301 37.682 C 45.301 38.56 46.012 39.272 46.891 39.272 C 47.769 39.272 48.481 38.56 48.481 37.682 Z"/>
  <circle fill="#ffffff" cx="49.861" cy="9.055" r="1.59"/>
  <path fill="#1484b7" d="M 60.241 43.997 L 38.948 44.057 C 38.688 44.057 38.481 44.162 38.326 44.372 C 37.268 45.812 36.278 47.102 34.381 46.494 C 29.461 44.934 33.241 38.109 36.953 41.019 C 37.583 41.514 38.018 42.084 38.888 42.084 C 46.723 42.12 54.466 42.174 62.116 42.249 C 62.664 42.255 63.066 42.763 62.941 43.292 C 56.918 68.717 23.641 72.272 12.188 49.104 C 4.981 34.532 13.201 16.802 28.253 12.129 C 36.068 9.699 43.578 10.569 50.783 14.739 C 51.093 14.914 51.403 14.917 51.713 14.747 C 54.001 13.464 57.338 15.977 56.131 18.497 C 54.511 21.887 49.898 20.597 50.101 16.974 C 50.114 16.743 49.999 16.524 49.801 16.404 C 43.911 12.84 37.735 11.797 31.276 13.277 C 25.101 14.692 20.143 17.91 16.403 22.929 C 9.256 32.537 10.133 46.307 18.406 54.917 C 26.026 62.859 37.613 65.109 47.551 60.114 C 53.866 56.944 58.251 51.789 60.706 44.649 C 60.856 44.214 60.7 43.997 60.241 43.997 Z M 54.826 17.319 C 54.826 16.425 54.1 15.699 53.206 15.699 C 52.311 15.699 51.586 16.425 51.586 17.319 C 51.586 18.214 52.311 18.939 53.206 18.939 C 54.1 18.939 54.826 18.214 54.826 17.319 Z M 36.811 43.464 C 36.811 42.582 36.095 41.867 35.213 41.867 C 34.331 41.867 33.616 42.582 33.616 43.464 C 33.616 44.346 34.331 45.062 35.213 45.062 C 36.095 45.062 36.811 44.346 36.811 43.464 Z"/>
  <path fill="#104c6b" d="M 51.338 50.192 L 44.558 50.289 C 44.329 50.293 44.117 50.412 43.996 50.604 C 41.701 54.242 36.586 51.152 38.363 47.747 C 39.833 44.919 42.758 45.587 44.266 47.957 C 44.457 48.26 44.794 48.444 45.158 48.444 L 53.866 48.437 C 54.061 48.437 54.25 48.5 54.406 48.617 L 54.601 48.759 C 54.97 49.039 55.018 49.367 54.743 49.742 C 48.188 58.734 36.976 62.064 26.896 57.212 C 20.296 54.032 15.548 47.147 14.866 39.917 C 14.236 33.272 16.318 27.447 21.113 22.442 C 24.616 18.774 30.248 15.984 35.611 16.059 C 36.321 16.069 37.026 16.024 37.726 15.924 C 38.001 15.885 38.233 15.762 38.423 15.557 C 40.083 13.797 41.763 13.785 43.463 15.519 C 44.113 16.174 44.29 17.012 43.996 18.032 C 43.051 21.332 39.083 21.429 37.951 18.324 C 37.84 18.019 37.623 17.867 37.298 17.867 C 24.811 17.934 16.028 27.339 17.056 39.894 C 17.873 49.982 26.836 57.707 36.833 57.617 C 42.473 57.564 47.746 54.752 51.571 50.717 C 51.737 50.547 51.652 50.262 51.418 50.202 C 51.391 50.195 51.365 50.192 51.338 50.192 Z M 42.526 17.432 C 42.526 16.558 41.817 15.849 40.943 15.849 C 40.069 15.849 39.361 16.558 39.361 17.432 C 39.361 18.306 40.069 19.014 40.943 19.014 C 41.817 19.014 42.526 18.306 42.526 17.432 Z M 42.796 49.089 C 42.796 48.228 42.097 47.529 41.236 47.529 C 40.374 47.529 39.676 48.228 39.676 49.089 C 39.676 49.951 40.374 50.649 41.236 50.649 C 42.097 50.649 42.796 49.951 42.796 49.089 Z"/>
  <circle fill="#ffffff" cx="53.206" cy="17.319" r="1.62"/>
  <circle fill="#ffffff" cx="40.943" cy="17.432" r="1.582"/>
  <circle fill="#ffffff" cx="46.891" cy="37.682" r="1.59"/>
  <circle fill="#ffffff" cx="35.213" cy="43.465" r="1.598"/>
  <circle fill="#ffffff" cx="41.235" cy="49.09" r="1.56"/>
</svg>